<svg width="25" height="26" viewBox="0 0 25 26" fill="none" xmlns="http://www.w3.org/2000/svg">
<path fill-rule="evenodd" clip-rule="evenodd" d="M10 20C15.5228 20 20 15.5228 20 10C20 4.47715 15.5228 0 10 0C4.47715 0 0 4.47715 0 10C0 15.5228 4.47715 20 10 20ZM10 18.3552C5.38558 18.3552 1.64485 14.6144 1.64485 10C1.64485 5.38558 5.38558 1.64485 10 1.64485C14.6144 1.64485 18.3552 5.38558 18.3552 10C18.3552 14.6144 14.6144 18.3552 10 18.3552ZM21.2463 25.0643L17.5329 20.8623C16.9026 20.1488 16.7267 19.5234 17.5867 18.5853C18.4466 17.6471 19.3456 17.9989 19.976 18.5169L24.178 21.9372C25.0135 22.5919 25.507 23.6376 24.178 24.9666C22.849 26.2956 21.6909 25.5235 21.2463 25.0643Z" fill="#ADADAD"/>
</svg>
